<svg width="22" height="22" viewBox="0 0 22 22" fill="none" xmlns="http://www.w3.org/2000/svg">
<path d="M2.29166 5.95841C2.29166 3.93337 3.93328 2.29175 5.95832 2.29175C7.98337 2.29175 9.62499 3.93337 9.62499 5.95841C9.62499 7.98346 7.98337 9.62508 5.95832 9.62508C3.93328 9.62508 2.29166 7.98346 2.29166 5.95841Z" stroke="#4E5D78" stroke-width="1.5"/>
<path opacity="0.5" d="M12.375 16.0417C12.375 14.0166 14.0166 12.375 16.0417 12.375C18.0667 12.375 19.7083 14.0166 19.7083 16.0417C19.7083 18.0667 18.0667 19.7083 16.0417 19.7083C14.0166 19.7083 12.375 18.0667 12.375 16.0417Z" stroke="#4E5D78" stroke-width="1.5"/>
<path d="M2.29166 16.0417C2.29166 14.3132 2.29166 13.4489 2.82863 12.912C3.3656 12.375 4.22984 12.375 5.95832 12.375C7.68681 12.375 8.55105 12.375 9.08802 12.912C9.62499 13.4489 9.62499 14.3132 9.62499 16.0417C9.62499 17.7701 9.62499 18.6344 9.08802 19.1714C8.55105 19.7083 7.68681 19.7083 5.95832 19.7083C4.22984 19.7083 3.3656 19.7083 2.82863 19.1714C2.29166 18.6344 2.29166 17.7701 2.29166 16.0417Z" stroke="#4E5D78" stroke-width="1.5"/>
<path opacity="0.5" d="M12.375 5.95841C12.375 4.22993 12.375 3.36569 12.912 2.82872C13.4489 2.29175 14.3132 2.29175 16.0417 2.29175C17.7701 2.29175 18.6344 2.29175 19.1714 2.82872C19.7083 3.36569 19.7083 4.22993 19.7083 5.95841C19.7083 7.6869 19.7083 8.55114 19.1714 9.08811C18.6344 9.62508 17.7701 9.62508 16.0417 9.62508C14.3132 9.62508 13.4489 9.62508 12.912 9.08811C12.375 8.55114 12.375 7.6869 12.375 5.95841Z" stroke="#4E5D78" stroke-width="1.5"/>
</svg>
