<svg width="22" height="22" viewBox="0 0 22 22" fill="none" xmlns="http://www.w3.org/2000/svg">
<path opacity="0.5" d="M11 7.33325V10.9999L13.2917 13.2916" stroke="#4E5D78" stroke-width="1.5" stroke-linecap="round" stroke-linejoin="round"/>
<path d="M5.13722 5.13713L4.60689 4.6068L4.60689 4.6068L5.13722 5.13713ZM3.97637 6.29798L3.22638 6.30175C3.22845 6.71301 3.56134 7.0459 3.9726 7.04797L3.97637 6.29798ZM6.30603 7.05969C6.72023 7.06178 7.0577 6.72768 7.05979 6.31347C7.06187 5.89926 6.72777 5.56179 6.31356 5.55971L6.30603 7.05969ZM4.71464 3.96079C4.71256 3.54658 4.37509 3.21248 3.96088 3.21456C3.54667 3.21665 3.21257 3.55412 3.21466 3.96832L4.71464 3.96079ZM3.56974 9.89466C3.62599 9.48429 3.33891 9.10601 2.92853 9.04976C2.51816 8.99351 2.13988 9.28059 2.08363 9.69096L3.56974 9.89466ZM17.3347 4.66543C13.8088 1.1396 8.11039 1.1033 4.60689 4.6068L5.66755 5.66746C8.57524 2.75977 13.3239 2.77597 16.274 5.72609L17.3347 4.66543ZM4.66552 17.3346C8.19135 20.8604 13.8898 20.8967 17.3933 17.3932L16.3326 16.3325C13.4249 19.2402 8.6763 19.224 5.72618 16.2739L4.66552 17.3346ZM17.3933 17.3932C20.8968 13.8897 20.8605 8.19126 17.3347 4.66543L16.274 5.72609C19.2241 8.67621 19.2403 13.4249 16.3326 16.3325L17.3933 17.3932ZM4.60689 4.6068L3.44604 5.76765L4.5067 6.82831L5.66755 5.66746L4.60689 4.6068ZM3.9726 7.04797L6.30603 7.05969L6.31356 5.55971L3.98014 5.54799L3.9726 7.04797ZM4.72636 6.29421L4.71464 3.96079L3.21466 3.96832L3.22638 6.30175L4.72636 6.29421ZM2.08363 9.69096C1.71309 12.3943 2.57602 15.2451 4.66552 17.3346L5.72618 16.2739C3.97996 14.5277 3.26065 12.1496 3.56974 9.89466L2.08363 9.69096Z" fill="#4E5D78"/>
</svg>
