<svg width="22" height="22" viewBox="0 0 22 22" fill="none" xmlns="http://www.w3.org/2000/svg">
<path opacity="0.5" d="M14.6667 3.66821C16.6604 3.67931 17.7402 3.76772 18.4445 4.47208C19.25 5.27753 19.25 6.57389 19.25 9.16662V14.6666C19.25 17.2593 19.25 18.5557 18.4445 19.3612C17.6391 20.1666 16.3427 20.1666 13.75 20.1666H8.25C5.65728 20.1666 4.36091 20.1666 3.55546 19.3612C2.75 18.5557 2.75 17.2593 2.75 14.6666V9.16662C2.75 6.57389 2.75 5.27753 3.55546 4.47208C4.25981 3.76772 5.33956 3.67931 7.33333 3.66821" stroke="#4E5D78" stroke-width="1.5"/>
<path d="M9.625 12.8333L15.5833 12.8333" stroke="#4E5D78" stroke-width="1.5" stroke-linecap="round"/>
<path d="M6.41666 12.8333H6.87499" stroke="#4E5D78" stroke-width="1.5" stroke-linecap="round"/>
<path d="M6.41666 9.625H6.87499" stroke="#4E5D78" stroke-width="1.5" stroke-linecap="round"/>
<path d="M6.41666 16.0417H6.87499" stroke="#4E5D78" stroke-width="1.5" stroke-linecap="round"/>
<path d="M9.625 9.625H15.5833" stroke="#4E5D78" stroke-width="1.5" stroke-linecap="round"/>
<path d="M9.625 16.0417H15.5833" stroke="#4E5D78" stroke-width="1.5" stroke-linecap="round"/>
<path d="M7.33334 3.20825C7.33334 2.44886 7.94895 1.83325 8.70834 1.83325H13.2917C14.0511 1.83325 14.6667 2.44886 14.6667 3.20825V4.12492C14.6667 4.88431 14.0511 5.49992 13.2917 5.49992H8.70834C7.94895 5.49992 7.33334 4.88431 7.33334 4.12492V3.20825Z" stroke="#4E5D78" stroke-width="1.5"/>
</svg>
