<svg width="24" height="24" viewBox="0 0 24 24" fill="none" xmlns="http://www.w3.org/2000/svg">
<rect opacity="0.01" y="3.05176e-05" width="24" height="24" fill="#C1C7D0"/>
<path fill-rule="evenodd" clip-rule="evenodd" d="M11.4519 21.2292C6.10992 21.2292 2.81959 17.4697 2.81959 12.6953C2.79679 10.1629 3.80294 7.72979 5.60761 5.95316C7.41227 4.17652 9.86084 3.20857 12.3925 3.271C17.2653 3.271 20.9017 6.26403 20.9017 10.9889C20.9017 15.2927 18.6263 16.9998 16.3502 16.9998C15.3737 17.0509 14.4465 16.5676 13.9293 15.7378C13.102 16.5076 12.0167 16.9401 10.8867 16.9502C8.1654 16.9502 6.78346 15.0209 6.78346 12.6922C6.73716 11.2502 7.28604 9.85273 8.30125 8.8277C9.31646 7.80267 10.7086 7.24038 12.1509 7.27281C12.946 7.24788 13.7275 7.48241 14.3775 7.94094L14.4766 7.52055H16.8263L15.665 12.9624C15.442 14.0509 15.6898 14.9164 16.7535 14.9164C18.0642 14.9164 18.8315 13.8279 18.8315 10.934C18.8315 7.07539 15.7889 5.26919 12.3755 5.26919C10.3909 5.19811 8.46674 5.95878 7.06725 7.36768C5.66775 8.77659 4.91999 10.7058 5.00437 12.6898C5.00437 16.598 7.50269 19.1458 11.4604 19.1458C12.9713 19.1574 14.4634 18.8098 15.8137 18.1316L16.6297 20.1353C14.9924 20.8366 13.2329 21.2083 11.4519 21.2292ZM11.2784 14.6245C11.9497 14.6505 12.6023 14.4 13.0839 13.9316L13.8751 10.2705C13.4248 9.81802 12.8101 9.56792 12.1719 9.57756C11.4045 9.57045 10.6679 9.879 10.1348 10.4309C9.60157 10.9828 9.31864 11.7296 9.35224 12.4963C9.34992 13.7838 9.9685 14.6245 11.2792 14.6245H11.2784Z" fill="#C1C7D0"/>
</svg>
