<svg width="22" height="22" viewBox="0 0 22 22" fill="none" xmlns="http://www.w3.org/2000/svg">
<circle cx="11" cy="5.49992" r="3.66667" stroke="#4E5D78" stroke-width="1.5"/>
<path opacity="0.5" d="M16.5 8.25008C18.0188 8.25008 19.25 7.22407 19.25 5.95841C19.25 4.69276 18.0188 3.66675 16.5 3.66675" stroke="#4E5D78" stroke-width="1.5" stroke-linecap="round"/>
<path opacity="0.5" d="M5.5 8.25008C3.98122 8.25008 2.75 7.22407 2.75 5.95841C2.75 4.69276 3.98122 3.66675 5.5 3.66675" stroke="#4E5D78" stroke-width="1.5" stroke-linecap="round"/>
<ellipse cx="11" cy="15.5834" rx="5.5" ry="3.66667" stroke="#4E5D78" stroke-width="1.5"/>
<path opacity="0.5" d="M18.3333 17.4166C19.9414 17.0639 21.0833 16.1709 21.0833 15.1249C21.0833 14.0789 19.9414 13.1859 18.3333 12.8333" stroke="#4E5D78" stroke-width="1.5" stroke-linecap="round"/>
<path opacity="0.5" d="M3.66666 17.4166C2.0586 17.0639 0.916656 16.1709 0.916656 15.1249C0.916656 14.0789 2.0586 13.1859 3.66666 12.8333" stroke="#4E5D78" stroke-width="1.5" stroke-linecap="round"/>
</svg>
