<svg width="22" height="22" viewBox="0 0 22 22" fill="none" xmlns="http://www.w3.org/2000/svg">
<circle cx="11" cy="11" r="2.75" stroke="#4E5D78" stroke-width="1.5"/>
<path opacity="0.5" d="M12.6183 1.97281C12.2813 1.83325 11.8542 1.83325 11 1.83325C10.1458 1.83325 9.71867 1.83325 9.38176 1.97281C8.93254 2.15888 8.57564 2.51578 8.38956 2.965C8.30462 3.17006 8.27138 3.40854 8.25837 3.75641C8.23926 4.26763 7.97709 4.74082 7.53405 4.9966C7.09102 5.25239 6.55014 5.24283 6.09787 5.00378C5.7901 4.84111 5.56694 4.75066 5.34688 4.72168C4.86481 4.65822 4.37727 4.78885 3.99152 5.08485C3.7022 5.30685 3.48865 5.67674 3.06153 6.41652C2.63442 7.1563 2.42086 7.52619 2.37326 7.88775C2.3098 8.36982 2.44043 8.85736 2.73643 9.24311C2.87154 9.41918 3.06142 9.56719 3.35611 9.75236C3.78934 10.0246 4.06809 10.4883 4.06806 10.9999C4.06803 11.5115 3.78929 11.9752 3.35611 12.2474C3.06136 12.4326 2.87146 12.5806 2.73634 12.7567C2.44034 13.1424 2.30971 13.63 2.37317 14.112C2.42077 14.4736 2.63433 14.8435 3.06144 15.5833C3.48856 16.323 3.70211 16.6929 3.99143 16.9149C4.37718 17.2109 4.86472 17.3416 5.34679 17.2781C5.56684 17.2491 5.78998 17.1587 6.09772 16.996C6.55003 16.757 7.09095 16.7474 7.53401 17.0032C7.97707 17.259 8.23925 17.7322 8.25838 18.2435C8.27139 18.5913 8.30463 18.8298 8.38956 19.0348C8.57564 19.4841 8.93254 19.841 9.38176 20.027C9.71867 20.1666 10.1458 20.1666 11 20.1666C11.8542 20.1666 12.2813 20.1666 12.6183 20.027C13.0675 19.841 13.4244 19.4841 13.6105 19.0348C13.6954 18.8298 13.7286 18.5913 13.7416 18.2434C13.7608 17.7322 14.0229 17.259 14.4659 17.0032C14.909 16.7474 15.4499 16.7569 15.9022 16.996C16.21 17.1586 16.4331 17.2491 16.6531 17.278C17.1352 17.3415 17.6227 17.2109 18.0085 16.9149C18.2978 16.6929 18.5114 16.323 18.9385 15.5832C19.3656 14.8434 19.5792 14.4735 19.6268 14.112C19.6902 13.6299 19.5596 13.1424 19.2636 12.7566C19.1285 12.5805 18.9386 12.4325 18.6439 12.2473C18.2107 11.9751 17.9319 11.5114 17.932 10.9998C17.932 10.4883 18.2107 10.0247 18.6439 9.75251C18.9386 9.5673 19.1286 9.41927 19.2637 9.24317C19.5597 8.85742 19.6903 8.36988 19.6268 7.88781C19.5792 7.52626 19.3657 7.15637 18.9386 6.41659C18.5115 5.6768 18.2979 5.30691 18.0086 5.08491C17.6228 4.78892 17.1353 4.65828 16.6532 4.72175C16.4332 4.75072 16.21 4.84116 15.9023 5.00382C15.45 5.24288 14.9091 5.25244 14.466 4.99663C14.0229 4.74083 13.7608 4.26761 13.7416 3.75636C13.7286 3.40852 13.6954 3.17005 13.6105 2.965C13.4244 2.51578 13.0675 2.15888 12.6183 1.97281Z" stroke="#4E5D78" stroke-width="1.5"/>
</svg>
