<svg width="24" height="24" viewBox="0 0 24 24" fill="none" xmlns="http://www.w3.org/2000/svg">
<rect opacity="0.01" width="24" height="24" fill="#C1C7D0"/>
<path opacity="0.3" fill-rule="evenodd" clip-rule="evenodd" d="M1.71428 12C1.71428 9.15969 2.71848 6.73532 4.7269 4.72691C6.73531 2.7185 9.15967 1.71429 12 1.71429C14.8403 1.71429 17.2647 2.7185 19.2731 4.72691C21.2815 6.73532 22.2857 9.15969 22.2857 12C22.2857 14.8403 21.2815 17.2647 19.2731 19.2731C17.2647 21.2815 14.8403 22.2857 12 22.2857C9.15967 22.2857 6.73531 21.2815 4.7269 19.2731C2.71848 17.2647 1.71428 14.8403 1.71428 12Z" fill="#C1C7D0"/>
<path fill-rule="evenodd" clip-rule="evenodd" d="M6.16455 14.5654C5.96639 14.2685 5.94172 13.8885 6.09984 13.5685C6.25796 13.2484 6.57483 13.0371 6.93103 13.0142C7.28724 12.9912 7.62862 13.1601 7.82654 13.4571C8.98198 15.1911 10.3457 16.0088 11.9897 16.0088C13.6337 16.0088 14.9974 15.1903 16.1528 13.4571C16.4589 12.9982 17.079 12.8742 17.538 13.1803C17.9969 13.4863 18.1209 14.1065 17.8148 14.5654C16.3071 16.8274 14.3408 18.0068 11.9863 18.0068C9.6317 18.0068 7.66884 16.8274 6.16455 14.5654Z" fill="#C1C7D0"/>
</svg>
